<svg width="1000" height="800" xmlns="http://www.w3.org/2000/svg" p-id="8253" version="1.1" class="icon" t="1594784306400">
 <defs>
  <style type="text/css"/>
 </defs>
 <g>
  <title>background</title>
  <rect fill="#ffffff" id="canvas_background" height="802" width="1002" y="-1" x="-1"/>
 </g>
 <g>
  <title>Layer 1</title>
  <path id="svg_1" p-id="8254" fill="#2C2C2C" d="m657.38799,394.418499c-31.52996,-11.63127 -40.75093,-47.777 -79.42078,-63.46395c-27.30603,-11.03459 -53.89912,-1.90873 -67.40337,0.29835c-13.50506,-2.20708 -40.09734,-11.33212 -67.40417,-0.29835c-38.66904,15.68695 -47.95017,51.83268 -79.42079,63.46395c-25.52166,9.4242 -52.76915,-5.48721 -52.76915,-5.48721c8.26903,113.32772 137.42515,96.32873 176.80874,57.02154c10.70862,-10.6769 17.90703,-24.39576 22.84472,-38.76984c4.87834,14.37489 12.13691,28.09294 22.84471,38.76984c39.3836,39.24784 168.53971,56.30618 176.80875,-57.02154c-0.11869,0 -27.36618,14.91141 -52.88866,5.48721z"/>
  <path id="svg_2" p-id="8255" fill="#2C2C2C" d="m619.41075,487.271196c-35.52791,0 -72.81092,-13.36768 -92.72343,-33.2371c-6.05301,-6.07577 -11.43942,-13.24574 -16.03893,-21.57086c-4.60032,8.26415 -9.98674,15.49428 -16.03894,21.57086c-19.91332,19.86942 -57.13536,33.2371 -92.72424,33.2371c-60.94795,0 -99.98687,-36.57902 -104.46526,-97.82694c-0.24225,-3.70692 1.51285,-7.29191 4.59951,-9.29738s7.08136,-2.18676 10.35012,-0.36419c0.12112,0.06097 14.10174,7.53415 30.20165,7.53415c5.44657,0 10.53139,-0.85031 15.1309,-2.55176c13.01324,-4.8003 21.97082,-14.88702 32.25997,-26.4931c11.98408,-13.4888 25.60214,-28.86114 48.23875,-38.03659c10.1672,-4.13208 21.30422,-6.19771 33.10621,-6.19771c13.0734,0 24.81524,2.49161 33.40944,4.37514c2.11847,0.48613 4.11582,0.91048 5.87092,1.21532c1.75591,-0.30403 3.75244,-0.79016 5.93189,-1.21532c8.5942,-1.82338 20.33603,-4.37514 33.40943,-4.37514c11.80199,0 22.93901,2.06564 33.10703,6.19771c22.6358,9.17545 36.25385,24.48763 48.23794,38.03659c10.35011,11.66705 19.24672,21.6928 32.25997,26.4931c4.5995,1.70145 9.68351,2.55258 15.1309,2.55258c16.09909,0 30.08052,-7.474 30.20165,-7.53578a10.18997,10.18997 0 0 1 10.35011,0.42597c3.08666,2.00547 4.90192,5.59046 4.59951,9.29656c-4.41822,61.18859 -43.45633,97.76679 -104.4051,97.76679zm-108.76236,-90.17166c4.35726,0 8.23083,2.79563 9.62336,6.9269c5.08401,14.88703 12.04424,26.85729 20.75957,35.54661c16.09991,16.10153 48.35906,27.28163 78.37943,27.28163c26.81258,0 70.81357,-8.56737 81.95059,-62.52421c-6.47654,1.82257 -14.28384,3.28095 -22.69676,3.28095c-7.86827,0 -15.313,-1.27628 -22.15211,-3.82804c-17.79484,-6.5619 -29.29361,-19.56539 -40.43063,-32.08194c-11.01509,-12.39543 -22.45451,-25.27779 -40.67208,-32.69082c-7.80811,-3.15901 -16.16087,-4.73933 -25.48102,-4.73933c-10.95492,0 -21.06279,2.18757 -29.1733,3.88902c-3.20779,0.66822 -6.0522,1.27628 -8.53405,1.70144c-1.08931,0.1821 -2.17863,0.1821 -3.26794,0c-2.48185,-0.42516 -5.32626,-1.03241 -8.53405,-1.70144c-8.11052,-1.76242 -18.21757,-3.88902 -29.17249,-3.88902c-9.32096,0 -17.67291,1.51935 -25.48102,4.73933c-18.21756,7.41384 -29.65699,20.23361 -40.67289,32.69082c-11.13702,12.51655 -22.63579,25.52004 -40.43064,32.08194c-6.8391,2.55257 -14.28302,3.82885 -22.1521,3.82886c-8.41211,0 -16.22022,-1.4592 -22.69676,-3.28177c11.19717,53.95684 55.19898,62.52421 81.95059,62.52421c30.08134,0 62.28034,-11.24107 78.37943,-27.28163c8.71614,-8.68932 15.67637,-20.65958 20.76038,-35.54661c1.51285,-4.13127 5.38642,-6.92609 9.74449,-6.92609l0,-0.00081z"/>
  <path id="svg_3" p-id="8256" fill="#3FB475" d="m536.10339,225.47236c0,-12.66369 -11.42642,-22.86504 -25.6119,-22.86504s-25.61108,10.20135 -25.61108,22.86504l0,53.82107l51.22298,0l0,-53.82107zm-51.22298,350.36418c0,12.66369 11.42642,22.86504 25.61108,22.86504s25.6119,-10.20135 25.6119,-22.86504l0,-54.52426l-51.22298,0l0,54.52426z"/>
  <path id="svg_4" p-id="8257" fill="#3E3A39" d="m220.65743,399.553735l-4.32556,0c-0.77796,0 -1.42342,-0.55929 -1.42342,-1.27059s0.62595,-1.2706 1.42261,-1.2706l6.45216,0c0.68285,0 1.2332,-0.49182 1.2332,-1.10151s-0.55035,-1.10069 -1.2332,-1.10069l-6.43265,0c-2.16318,0 -3.88983,1.55837 -3.88983,3.4728s1.74534,3.4728 3.88983,3.4728l4.19305,0c0.77796,0 1.42261,0.55847 1.42261,1.26978s-0.62595,1.27059 -1.42261,1.27059l-6.45135,0c-0.68285,0 -1.2332,0.49182 -1.2332,1.10151s0.55035,1.1007 1.2332,1.1007l6.43265,0c2.14449,0 3.88983,-1.55837 3.88983,-3.4728c0,-1.89736 -1.68844,-3.42159 -3.75732,-3.47199z"/>
  <path stroke="null" id="svg_5" p-id="8258" fill="#3E3A39" d="m760.69728,80.21389l-500.14818,0c-39.50797,0 -71.45009,28.51728 -71.45009,63.78831l0,513.30449c0,35.27103 31.94211,63.78831 71.45009,63.78831l500.14818,0c39.50797,0 71.45008,-28.51728 71.45008,-63.78831l0,-513.68006c0,-34.89546 -31.94211,-63.41274 -71.45008,-63.41274zm16.81202,576.71805c0,8.2544 -7.56504,15.00896 -16.81121,15.00896l-500.1498,0c-9.24617,0 -16.81122,-6.75456 -16.81122,-15.00896l0,-513.30531c0,-8.2544 7.56505,-15.00897 16.81122,-15.00897l500.1498,0c9.24616,0 16.81121,6.75457 16.81121,15.00897l0,513.30531z"/>
  <rect id="svg_6" height="1" width="1" y="109.453125" x="69.5" stroke-width="1.5" stroke="#fff" fill="#000"/>
 </g>
</svg>